<svg xmlns="http://www.w3.org/2000/svg" viewBox="0 0 24 24"><line x1="3.5" y1="3.5" x2="20.5" y2="20.5" fill="none" stroke="#000" stroke-miterlimit="10"/><path d="M9,6.4A9.5,9.5,0,0,1,12,6a11.6,11.6,0,0,1,10,6,11.3,11.3,0,0,1-3.6,4" fill="none" stroke="#000"/><path d="M16.9,16.9A12.2,12.2,0,0,1,12,18,11.6,11.6,0,0,1,2,12,12.1,12.1,0,0,1,7.1,7.1" fill="none" stroke="#000"/><path d="M12,9a2.9,2.9,0,0,1,3,3" fill="none" stroke="#000"/><path d="M14.1,14.1A2.7,2.7,0,0,1,12,15a2.9,2.9,0,0,1-3-3,2.7,2.7,0,0,1,.9-2.1" fill="none" stroke="#000"/></svg>